<svg xmlns="http://www.w3.org/2000/svg" width="45" height="60" viewBox="0 0 45 60">
  <metadata><?xpacket begin="﻿" id="W5M0MpCehiHzreSzNTczkc9d"?>
<x:xmpmeta xmlns:x="adobe:ns:meta/" x:xmptk="Adobe XMP Core 5.6-c138 79.159824, 2016/09/14-01:09:01        ">
   <rdf:RDF xmlns:rdf="http://www.w3.org/1999/02/22-rdf-syntax-ns#">
      <rdf:Description rdf:about=""/>
   </rdf:RDF>
</x:xmpmeta>
                                                                                                    
                                                                                                    
                                                                                                    
                                                                                                    
                                                                                                    
                                                                                                    
                                                                                                    
                                                                                                    
                                                                                                    
                                                                                                    
                                                                                                    
                                                                                                    
                                                                                                    
                                                                                                    
                                                                                                    
                                                                                                    
                                                                                                    
                                                                                                    
                                                                                                    
                                                                                                    
                           
<?xpacket end="w"?></metadata>
<defs>
    <style>
      .cls-1 {
        fill: #f75c1a;
        fill-rule: evenodd;
      }
    </style>
  </defs>
  <path id="advantages-7" class="cls-1" d="M832.5,603.006c3.786,0,7.572-.019,11.358.006,3.632,0.023,6.642,1.326,8.638,4.5a9.58,9.58,0,0,1,1.216,7.053c-0.683,3.729-1.384,7.454-2.148,11.166a2.3,2.3,0,0,0,.442,1.949,22.5,22.5,0,1,1-37.488.648,2.294,2.294,0,0,0,.224-1.588c-1.033-4.275-2.243-8.509-3.182-12.8a8.812,8.812,0,0,1,8.334-10.84c4.2-.171,8.4-0.034,12.606-0.034v-0.052Zm0,1.74v0q-5.871,0-11.742,0c-0.256,0-.512.03-0.768,0.049a7.127,7.127,0,0,0-6.694,8.879c1.011,4.509,2.21,8.976,3.371,13.451a1.747,1.747,0,0,1-.29,1.594,20.165,20.165,0,0,0-3.584,10.142,20.786,20.786,0,0,0,20.645,22.378,20.8,20.8,0,0,0,16.662-33.272,1.793,1.793,0,0,1-.427-1.566c0.8-3.933,1.527-7.882,2.289-11.824a8.332,8.332,0,0,0-.6-5.549c-1.565-3.038-4.208-4.271-7.5-4.284C840.061,604.734,836.276,604.746,832.49,604.746Zm13.594,18.986c-8.849-5.611-17.421-5.508-25.951.681-0.241-.939-0.466-1.82-0.692-2.7-0.715-2.8-1.449-5.6-2.142-8.4-0.673-2.727.775-4.568,3.593-4.572q11.553-.015,23.107,0c2.89,0,4.515,1.917,4.009,4.794C847.412,616.913,846.738,620.281,846.084,623.732Zm-1.229-2.809c0.494-2.608.979-5.124,1.445-7.644,0.327-1.765-.432-2.786-2.2-2.792q-11.636-.042-23.271,0c-1.665,0-2.247.827-1.844,2.453,0.579,2.335,1.191,4.662,1.792,6.992,0.133,0.515.276,1.028,0.43,1.6C829.015,616.884,836.856,616.753,844.855,620.923Zm3.851,19.591h1.582c0.511,8.3-7.147,17.067-16.7,16.808V655.7A15.362,15.362,0,0,0,848.706,640.514Zm-3.788-12.446-1.1,1.177a15.984,15.984,0,0,0-9.566-3.96,15.525,15.525,0,0,0-9.871,2.99c-0.1-.137-0.181-0.239-0.257-0.342-0.227-.31-0.453-0.621-0.678-0.929C828.788,622.321,838.947,622.157,844.918,628.068Z" transform="translate(-811 -603)"/>
</svg>
