<svg xmlns="http://www.w3.org/2000/svg" width="38" height="60" viewBox="0 0 38 60">
  <metadata><?xpacket begin="﻿" id="W5M0MpCehiHzreSzNTczkc9d"?>
<x:xmpmeta xmlns:x="adobe:ns:meta/" x:xmptk="Adobe XMP Core 5.6-c138 79.159824, 2016/09/14-01:09:01        ">
   <rdf:RDF xmlns:rdf="http://www.w3.org/1999/02/22-rdf-syntax-ns#">
      <rdf:Description rdf:about=""/>
   </rdf:RDF>
</x:xmpmeta>
                                                                                                    
                                                                                                    
                                                                                                    
                                                                                                    
                                                                                                    
                                                                                                    
                                                                                                    
                                                                                                    
                                                                                                    
                                                                                                    
                                                                                                    
                                                                                                    
                                                                                                    
                                                                                                    
                                                                                                    
                                                                                                    
                                                                                                    
                                                                                                    
                                                                                                    
                                                                                                    
                           
<?xpacket end="w"?></metadata>
<defs>
    <style>
      .cls-1 {
        fill: #f75c1a;
        fill-rule: evenodd;
      }
    </style>
  </defs>
  <path id="advantages-4" class="cls-1" d="M1134.01,373c1.89,2.4,3.74,4.632,5.46,6.958a88.491,88.491,0,0,1,9.8,16.608c2.11,4.755,3.7,9.677,3.73,14.906,0.04,7.632-2.29,14.325-9.05,18.653-8.74,5.6-22.31,3.185-27.09-8.757-2.66-6.633-2.31-13.293.11-19.955a90.9,90.9,0,0,1,10.7-19.955c1.76-2.585,3.68-5.06,5.53-7.58C1133.38,373.641,1133.6,373.44,1134.01,373Zm0.04,3.8c-0.41.468-.65,0.7-0.84,0.973-1.47,2.056-2.97,4.087-4.38,6.185a85.734,85.734,0,0,0-9.66,18.226c-2.09,5.727-2.63,11.53-.53,17.357,2.31,6.434,6.91,10.347,13.78,10.985,9.47,0.88,16.44-5.684,17.82-14.8a29.035,29.035,0,0,0-1.67-14.1,74.941,74.941,0,0,0-9.71-18.182C1137.33,381.259,1135.74,379.12,1134.05,376.8Zm10.5,45.131c-0.69-.394-1.31-0.742-2.03-1.151a18.83,18.83,0,0,0,2.5-9.078h2.37A19.893,19.893,0,0,1,1144.55,421.931Z" transform="translate(-1115 -373)"/>
</svg>
