<svg xmlns="http://www.w3.org/2000/svg" width="54" height="64" viewBox="0 0 54 64">
  <metadata><?xpacket begin="﻿" id="W5M0MpCehiHzreSzNTczkc9d"?>
<x:xmpmeta xmlns:x="adobe:ns:meta/" x:xmptk="Adobe XMP Core 5.6-c138 79.159824, 2016/09/14-01:09:01        ">
   <rdf:RDF xmlns:rdf="http://www.w3.org/1999/02/22-rdf-syntax-ns#">
      <rdf:Description rdf:about=""/>
   </rdf:RDF>
</x:xmpmeta>
                                                                                                    
                                                                                                    
                                                                                                    
                                                                                                    
                                                                                                    
                                                                                                    
                                                                                                    
                                                                                                    
                                                                                                    
                                                                                                    
                                                                                                    
                                                                                                    
                                                                                                    
                                                                                                    
                                                                                                    
                                                                                                    
                                                                                                    
                                                                                                    
                                                                                                    
                                                                                                    
                           
<?xpacket end="w"?></metadata>
<defs>
    <style>
      .cls-1 {
        fill: #f75c1a;
        fill-rule: evenodd;
      }
    </style>
  </defs>
  <path id="advantages-5" class="cls-1" d="M243.034,618.2c0,4.27.024,8.54-.02,12.809a1.932,1.932,0,0,0,.966,1.788,13.218,13.218,0,0,1,5.99,11.386,13.894,13.894,0,0,1-16.465,13.555c-7.527-1.527-12.334-7.92-11.39-15.391a13.084,13.084,0,0,1,5.615-9.333,2.253,2.253,0,0,0,1.057-2.1q-0.05-13.041-.014-26.082a6.669,6.669,0,0,1,4.11-6.308,6.56,6.56,0,0,1,7.493.931,7.48,7.48,0,0,1,2.616,6.05c0.017,4.231.005,8.463,0.005,12.694h0.037Zm-2.027-8.186c-1.074,0-2.119.023-3.163-.009-0.6-.019-1.305-0.168-1.137-0.935a1.506,1.506,0,0,1,1.129-.764,32.684,32.684,0,0,1,3.281-.036,34.115,34.115,0,0,0-.028-4.147,5.264,5.264,0,0,0-6.673-4.506,5.477,5.477,0,0,0-4.09,5.492q-0.006,13.277.012,26.553a2.4,2.4,0,0,1-1.167,2.3,11.424,11.424,0,0,0-2.582,2.3,11.722,11.722,0,0,0-2.654,10.213h23.9a12,12,0,0,0-5.61-12.846,1.9,1.9,0,0,1-1.076-1.868c0.058-1.024.014-2.053,0.014-3.184a32.156,32.156,0,0,1-3.372-.039,3.126,3.126,0,0,1-1.137-.817,3.2,3.2,0,0,1,1.157-.81,30.148,30.148,0,0,1,3.243-.039v-2.983a30.773,30.773,0,0,1-3.235-.037,3.32,3.32,0,0,1-1.178-.765,3.253,3.253,0,0,1,1.168-.772,31.585,31.585,0,0,1,3.249-.037V619.3c-1.034,0-1.964.016-2.892,0-0.643-.015-1.456.1-1.5-0.846-0.042-1.015.8-.843,1.432-0.859,0.993-.025,1.988-0.006,2.964-0.006V614.71a4.012,4.012,0,0,0-.54-0.09,28.93,28.93,0,0,1-3.021-.065,2.371,2.371,0,0,1-.853-0.859,3.469,3.469,0,0,1,.89-0.67A3.832,3.832,0,0,1,238.7,613c2.635,0,2.635,0,2.437-2.633A2.005,2.005,0,0,0,241.007,610.016Zm6.261,38.407H224.661c0.863,3.593,5.361,7.881,11.49,7.916C240.978,656.367,246.536,652.463,247.268,648.423Zm-21.121-5.084a9.294,9.294,0,0,1,4.1-7.245c0.516-.346,1.092-0.654,1.526-0.029,0.411,0.594.019,1.06-.527,1.425a7.3,7.3,0,0,0-3.361,5.533c-0.066.62-.007,1.431-0.842,1.334A2.239,2.239,0,0,1,226.147,643.339Zm37.061-37.345h-1.276c-1.5,0-2.99.012-4.486,0.007a0.7,0.7,0,0,0-.583.25q-1.206,1.355-2.45,2.678a0.835,0.835,0,0,1-.515.251,0.485,0.485,0,0,1-.373-0.279,0.653,0.653,0,0,1,.114-0.517c0.528-.618,1.088-1.21,1.636-1.812,0.149-.164.3-0.331,0.48-0.537-0.134-.011-0.223-0.025-0.312-0.025-0.678,0-1.356.014-2.033-.006a0.827,0.827,0,0,1-.516-0.188,0.477,0.477,0,0,1-.081-0.457,0.771,0.771,0,0,1,.5-0.313c0.665-.037,1.333-0.016,2-0.017h0.446c-0.089-.115-0.139-0.189-0.2-0.255-0.627-.689-1.261-1.371-1.879-2.068a0.659,0.659,0,0,1-.19-0.443,0.572,0.572,0,0,1,.3-0.394,0.586,0.586,0,0,1,.488.1,7.911,7.911,0,0,1,.706.745c0.65,0.711,1.3,1.426,1.954,2.131a0.546,0.546,0,0,0,.349.173c1.9,0.011,3.808.007,5.712,0.006a1.246,1.246,0,0,0,.156-0.03c-0.1-.1-0.168-0.182-0.245-0.257l-8.139-8.076a3.126,3.126,0,0,1-.28-0.308,0.429,0.429,0,0,1,.07-0.628,0.4,0.4,0,0,1,.6-0.009c0.36,0.336.71,0.682,1.059,1.029q3.694,3.664,7.386,7.331c0.073,0.072.152,0.138,0.266,0.243,0.008-.156.018-0.26,0.018-0.363,0-1.782,0-3.563,0-5.345a0.625,0.625,0,0,0-.231-0.524c-0.926-.814-1.839-1.642-2.756-2.465a0.492,0.492,0,0,1-.134-0.77,0.52,0.52,0,0,1,.793.056c0.63,0.565,1.256,1.135,1.885,1.7,0.123,0.112.25,0.22,0.439,0.385v-1.7c0-.267-0.007-0.534,0-0.8a0.468,0.468,0,0,1,.478-0.5,0.452,0.452,0,0,1,.481.46c0.025,0.414.014,0.831,0.016,1.247,0,0.4,0,.8,0,1.287l1.777-1.588c0.2-.178.4-0.36,0.6-0.535a0.481,0.481,0,0,1,.713-0.026,0.472,0.472,0,0,1-.067.73c-0.922.833-1.845,1.666-2.779,2.486a0.654,0.654,0,0,0-.248.548c0.008,1.782,0,3.563,0,5.345,0,0.1.009,0.205,0.016,0.365,0.13-.121.223-0.2,0.31-0.289q4.084-4.052,8.17-8.1c0.06-.061.119-0.124,0.184-0.18a0.443,0.443,0,0,1,.659-0.013,0.5,0.5,0,0,1,.026.669,3.551,3.551,0,0,1-.289.3l-8.1,8.035c-0.073.073-.14,0.151-0.248,0.267,0.156,0.009.258,0.019,0.359,0.019,1.8,0,3.593,0,5.39,0a0.632,0.632,0,0,0,.527-0.231c0.822-.917,1.656-1.822,2.488-2.73a0.5,0.5,0,0,1,.755-0.132,0.488,0.488,0,0,1-.03.76c-0.68.754-1.368,1.5-2.1,2.31,0.157,0.008.255,0.018,0.352,0.018h2.034a0.551,0.551,0,0,1,.593.347,0.5,0.5,0,0,1-.583.635c-0.656.009-1.312,0-1.968,0h-0.432c0.171,0.192.293,0.332,0.418,0.469,0.578,0.633,1.167,1.256,1.725,1.9a0.645,0.645,0,0,1,.106.517,0.489,0.489,0,0,1-.373.281,0.768,0.768,0,0,1-.491-0.234,26.524,26.524,0,0,1-1.856-2.044,2.167,2.167,0,0,0-2.042-.917c-1.479.084-2.967,0.023-4.452,0.023h-0.439c0.121,0.13.192,0.211,0.268,0.287l8.16,8.1a2.685,2.685,0,0,1,.221.232,0.446,0.446,0,0,1,0,.637,0.466,0.466,0,0,1-.646.034,4.106,4.106,0,0,1-.469-0.436q-4.026-3.993-8.049-7.987c-0.037-.037-0.077-0.071-0.161-0.147-0.013.129-.029,0.215-0.029,0.3,0,1.814-.006,3.628.009,5.441a0.7,0.7,0,0,0,.214.454c0.914,0.842,1.845,1.667,2.769,2.5a0.447,0.447,0,0,1,.195.581,0.714,0.714,0,0,1-.436.307,0.671,0.671,0,0,1-.44-0.2c-0.637-.557-1.26-1.131-1.889-1.7-0.117-.105-0.237-0.208-0.4-0.352-0.011.152-.023,0.251-0.024,0.35,0,0.661,0,1.322,0,1.984a0.631,0.631,0,0,1-.105.417,0.735,0.735,0,0,1-.5.186,0.456,0.456,0,0,1-.371-0.524c0-.672,0-1.345,0-2.017v-0.426c-0.621.556-1.177,1.052-1.732,1.547-0.191.172-.381,0.346-0.574,0.515-0.333.291-.6,0.312-0.814,0.068s-0.151-.49.186-0.792c0.918-.823,1.838-1.643,2.748-2.474a0.58,0.58,0,0,0,.181-0.375c0.011-1.867.008-3.734,0.007-5.6,0-.042-0.009-0.083-0.023-0.2-0.12.113-.208,0.192-0.292,0.275q-4.026,4-8.052,7.993a3.4,3.4,0,0,1-.328.307,0.534,0.534,0,0,1-.679-0.039,0.441,0.441,0,0,1,.022-0.635c0.069-.082.148-0.155,0.224-0.23l8.143-8.084C262.991,606.225,263.07,606.139,263.208,605.994Z" transform="translate(-222 -594)"/>
</svg>
