<svg xmlns="http://www.w3.org/2000/svg" width="56" height="64" viewBox="0 0 56 64">
  <metadata><?xpacket begin="﻿" id="W5M0MpCehiHzreSzNTczkc9d"?>
<x:xmpmeta xmlns:x="adobe:ns:meta/" x:xmptk="Adobe XMP Core 5.6-c138 79.159824, 2016/09/14-01:09:01        ">
   <rdf:RDF xmlns:rdf="http://www.w3.org/1999/02/22-rdf-syntax-ns#">
      <rdf:Description rdf:about=""/>
   </rdf:RDF>
</x:xmpmeta>
                                                                                                    
                                                                                                    
                                                                                                    
                                                                                                    
                                                                                                    
                                                                                                    
                                                                                                    
                                                                                                    
                                                                                                    
                                                                                                    
                                                                                                    
                                                                                                    
                                                                                                    
                                                                                                    
                                                                                                    
                                                                                                    
                                                                                                    
                                                                                                    
                                                                                                    
                                                                                                    
                           
<?xpacket end="w"?></metadata>
<defs>
    <style>
      .cls-1 {
        fill: #f75c1a;
        fill-rule: evenodd;
      }
    </style>
  </defs>
  <path id="advantages-6" class="cls-1" d="M542.8,618.444c0,4.244.024,8.488-.02,12.731a1.923,1.923,0,0,0,.955,1.777,13.151,13.151,0,0,1,5.924,11.316,13.758,13.758,0,0,1-16.284,13.472c-7.444-1.518-12.2-7.872-11.265-15.3a13.014,13.014,0,0,1,5.553-9.275,2.244,2.244,0,0,0,1.046-2.087q-0.05-12.96-.013-25.921a6.627,6.627,0,0,1,4.064-6.27,6.465,6.465,0,0,1,7.411.925,7.452,7.452,0,0,1,2.587,6.013c0.017,4.205.005,8.411,0.005,12.616H542.8Zm-2-8.135c-1.062,0-2.1.023-3.128-.009-0.6-.019-1.291-0.167-1.125-0.93a1.493,1.493,0,0,1,1.117-.759,32.245,32.245,0,0,1,3.244-.036,34.1,34.1,0,0,0-.027-4.121,5.207,5.207,0,0,0-6.6-4.478,5.44,5.44,0,0,0-4.046,5.458q-0.006,13.194.012,26.39a2.385,2.385,0,0,1-1.154,2.288,11.289,11.289,0,0,0-2.554,2.282,11.692,11.692,0,0,0-2.625,10.15h23.639a11.946,11.946,0,0,0-5.548-12.767,1.9,1.9,0,0,1-1.064-1.857c0.057-1.018.013-2.04,0.013-3.164a31.729,31.729,0,0,1-3.335-.039,3.086,3.086,0,0,1-1.124-.812,3.152,3.152,0,0,1,1.144-.8,29.741,29.741,0,0,1,3.207-.039V624.1a30.4,30.4,0,0,1-3.2-.036,3.282,3.282,0,0,1-1.164-.761,3.217,3.217,0,0,1,1.154-.767,31.19,31.19,0,0,1,3.214-.037v-2.96c-1.022,0-1.942.016-2.86,0-0.636-.015-1.44.1-1.479-0.841-0.041-1.009.8-.838,1.417-0.854,0.982-.025,1.966-0.006,2.931-0.006v-2.855a3.927,3.927,0,0,0-.534-0.09,28.578,28.578,0,0,1-2.988-.064,2.344,2.344,0,0,1-.843-0.854,3.454,3.454,0,0,1,.88-0.666,3.748,3.748,0,0,1,1.143-.027c2.606,0,2.606,0,2.41-2.618A1.9,1.9,0,0,0,540.8,610.309Zm6.192,38.171H524.632c0.854,3.57,5.3,7.833,11.364,7.867C540.77,656.375,546.267,652.5,546.991,648.48ZM526.1,643.427a9.247,9.247,0,0,1,4.056-7.2c0.511-.344,1.08-0.65,1.509-0.029,0.407,0.591.019,1.054-.521,1.417a7.262,7.262,0,0,0-3.324,5.5c-0.065.616-.007,1.422-0.832,1.325A2.213,2.213,0,0,1,526.1,643.427Zm40.155-33.4a4.419,4.419,0,1,1,4.524-4.329A4.423,4.423,0,0,1,566.257,610.026Zm3.416-4.418a3.327,3.327,0,1,0-3.328,3.315A3.309,3.309,0,0,0,569.673,605.608Zm-11.207-8.459a2.992,2.992,0,0,1,.473.3q1.521,1.5,3.027,3.013a0.555,0.555,0,1,1-.777.778c-1.013-1-2.028-2-3.015-3.023a0.806,0.806,0,0,1-.158-0.642A1.305,1.305,0,0,1,558.466,597.149Zm16.365,0.578a2.91,2.91,0,0,1-.309.5q-1.488,1.5-3,2.99a0.561,0.561,0,1,1-.769-0.789c0.987-.99,1.971-1.984,2.979-2.951a0.85,0.85,0,0,1,.639-0.191A1.311,1.311,0,0,1,574.831,597.727Zm-12.56,12.535a3.155,3.155,0,0,1-.322.5q-1.489,1.5-3,2.989a0.557,0.557,0,1,1-.773-0.783c1-1,1.987-2,3.006-2.978a0.839,0.839,0,0,1,.645-0.178A1.305,1.305,0,0,1,562.271,610.262Zm12.478,3.075a0.566,0.566,0,0,1-.757.6,0.736,0.736,0,0,1-.221-0.149q-1.53-1.516-3.052-3.042a0.539,0.539,0,0,1-.055-0.816,0.548,0.548,0,0,1,.846.052q1.52,1.5,3.023,3.017A1.529,1.529,0,0,1,574.749,613.337Zm-7.85-16.573c0,0.69,0,1.379,0,2.069a0.565,0.565,0,1,1-1.1,0q0-2.088,0-4.176a0.56,0.56,0,1,1,1.1,0C566.9,595.359,566.9,596.061,566.9,596.764Zm-9.421,9.394c-0.7,0-1.41,0-2.115,0a0.559,0.559,0,1,1-.007-1.1q2.115-.007,4.229,0a0.557,0.557,0,1,1,.007,1.1C558.888,606.163,558.183,606.158,557.478,606.158Zm17.764-1.1c0.692,0,1.385,0,2.077,0a0.562,0.562,0,1,1-.009,1.1q-2.076,0-4.153,0a0.567,0.567,0,1,1,.009-1.1C573.858,605.055,574.55,605.057,575.242,605.057Zm-8.343,9.4c0,0.7,0,1.405,0,2.108a0.56,0.56,0,1,1-1.1-.009q-0.006-2.107,0-4.216a0.558,0.558,0,1,1,1.1.009C566.9,613.049,566.9,613.751,566.9,614.454Z" transform="translate(-522 -594)"/>
</svg>
