<svg xmlns="http://www.w3.org/2000/svg" width="63" height="63" viewBox="0 0 63 63">
  <metadata><?xpacket begin="﻿" id="W5M0MpCehiHzreSzNTczkc9d"?>
<x:xmpmeta xmlns:x="adobe:ns:meta/" x:xmptk="Adobe XMP Core 5.6-c138 79.159824, 2016/09/14-01:09:01        ">
   <rdf:RDF xmlns:rdf="http://www.w3.org/1999/02/22-rdf-syntax-ns#">
      <rdf:Description rdf:about=""/>
   </rdf:RDF>
</x:xmpmeta>
                                                                                                    
                                                                                                    
                                                                                                    
                                                                                                    
                                                                                                    
                                                                                                    
                                                                                                    
                                                                                                    
                                                                                                    
                                                                                                    
                                                                                                    
                                                                                                    
                                                                                                    
                                                                                                    
                                                                                                    
                                                                                                    
                                                                                                    
                                                                                                    
                                                                                                    
                                                                                                    
                           
<?xpacket end="w"?></metadata>
<defs>
    <style>
      .cls-1 {
        fill: #f75c1a;
        fill-rule: evenodd;
      }
    </style>
  </defs>
  <path id="advantages-2" class="cls-1" d="M533.5,431A31.5,31.5,0,1,1,565,399.944,31.442,31.442,0,0,1,533.5,431Zm-21.764-51.792c-10.392,10.589-11.439,29.193.6,41.338,11.886,11.992,30.453,11.382,41.25.945l-15.4-15.808c-0.557,3.481-1.027,6.952-1.7,10.384a21.108,21.108,0,0,1-1.6,4.822c-0.692,1.481-2.084,1.453-2.931.054a6.986,6.986,0,0,1-.918-2.161c-0.679-3.365-1.359-6.734-1.876-10.126-0.372-2.442-.486-4.924-0.721-7.45-0.18.115-.352,0.237-0.535,0.34-1.754.988-3.449,2.113-5.283,2.921a4.7,4.7,0,0,1-5.992-2.009,17.662,17.662,0,0,1-1.067-3.086c0.019,0-.2-0.008-0.413-0.022a6.8,6.8,0,0,1-6.164-5.044c-0.91-3.344.48-5.509,3.9-6.036a12.441,12.441,0,0,1,1.79-.12c2.062-.014,4.125-0.006,5.991-0.006Zm43.255,40.843a29.736,29.736,0,0,0-42.119-41.972q5.3,5.146,10.6,10.283a0.954,0.954,0,0,0,.489.253c1.8,0.26,3.595.5,5.343,0.742l0.774-2.414a20.975,20.975,0,0,1-1.923-1.9,1.312,1.312,0,0,1-.083-1.22,0.785,0.785,0,0,1,1.3.035c0.475,0.462.959,0.917,1.4,1.409a1.094,1.094,0,0,0,1.452.389,2.389,2.389,0,0,1,1.734-.172c1.535,0.735,2.273-.2,3.045-1.2,0.076-.1.163-0.192,0.245-0.289,0.4-.476.864-0.831,1.439-0.315s0.292,1.007-.165,1.452c-0.5.484-1,.967-1.467,1.479a0.856,0.856,0,0,0-.267.618c0.2,0.684.485,1.345,0.758,2.067a2.112,2.112,0,0,0,.3,0c2.877-.344,5.746-0.823,8.633-1a59.962,59.962,0,0,1,7.93.074,3.643,3.643,0,0,1,3.6,3.188,6.335,6.335,0,0,1-1.283,5.079A6.82,6.82,0,0,1,551.1,399.4c-0.088,3.467-2.267,5.665-5.445,5.385a7.282,7.282,0,0,1-2.643-.921c-1.6-.846-3.137-1.815-4.685-2.723a3.2,3.2,0,0,0,1.16,3.247c4.871,4.772,9.667,9.621,14.481,14.451C554.318,419.191,554.614,419.605,554.988,420.054Zm-17.026-28.939c0.134,1.087.319,2.015,0.337,2.947a0.836,0.836,0,0,0,.64.946,48.969,48.969,0,0,0,12.226,2.7,5.029,5.029,0,0,0,5.281-4.177c0.384-2.249-.377-3.292-2.651-3.493a61.344,61.344,0,0,0-12.434.5C540.185,390.666,539.024,390.929,537.962,391.115Zm-10.205,4.231c-0.008-.14-0.016-0.279-0.023-0.419-1.362-1.352-2.749-2.68-4.074-4.067a2.433,2.433,0,0,0-1.821-.8c-2.453-.057-4.906-0.173-7.36-0.186a10.992,10.992,0,0,0-2.506.365,1.905,1.905,0,0,0-1.464,1.662,5.091,5.091,0,0,0,4.69,5.729,12.492,12.492,0,0,0,2.909-.218C521.333,396.764,524.542,396.04,527.757,395.346Zm3.447,3.079a11.578,11.578,0,0,0-.716,2.578,30.175,30.175,0,0,0,.2,5.278c0.6,4.017,1.362,8.011,2.091,12.007a9.546,9.546,0,0,0,.6,1.606,3.16,3.16,0,0,0,.754-1.311,77.023,77.023,0,0,0,2.384-14.251,1.079,1.079,0,0,0-.209-0.769C534.68,401.892,533.025,400.25,531.2,398.425Zm6.536-1.858c-0.391.542-.949,1.19-0.06,1.767,2.424,1.572,4.823,3.2,7.36,4.575a3.141,3.141,0,0,0,4.269-1.978,1.311,1.311,0,0,0-1.112-1.925c-0.713-.124-1.438-0.195-2.14-0.365C543.311,397.974,540.572,397.276,537.74,396.567Zm-8.593-.028c-1.732.509-3.374,1.052-5.048,1.468-1.708.424-3.444,0.739-5.174,1.071a1.406,1.406,0,0,0-1.112,2.26,3.285,3.285,0,0,0,4.554,1.362c2.258-1.23,4.408-2.668,6.549-4.1C529.966,397.9,529.927,397.649,529.147,396.539Zm2.079-.426a3.934,3.934,0,0,1,4.688.054,4.533,4.533,0,0,0-.36-5.341,2.564,2.564,0,0,0-2.529-.936,3.194,3.194,0,0,0-2.436,2.5A3.624,3.624,0,0,0,531.226,396.113Zm5.26,5.017c-0.281-2.934-2.162-4.752-3.769-3.792Zm-7.343-9.976-3.15-.595,2.66,2.626C528.794,392.6,528.953,391.943,529.143,391.154Zm2.2-2.4a4.666,4.666,0,0,1,4.25-.076,2.048,2.048,0,0,0-2.033-1.571A2.194,2.194,0,0,0,531.341,388.757Z" transform="translate(-502 -368)"/>
</svg>
