<svg xmlns="http://www.w3.org/2000/svg" width="61" height="63" viewBox="0 0 61 63">
  <metadata><?xpacket begin="﻿" id="W5M0MpCehiHzreSzNTczkc9d"?>
<x:xmpmeta xmlns:x="adobe:ns:meta/" x:xmptk="Adobe XMP Core 5.6-c138 79.159824, 2016/09/14-01:09:01        ">
   <rdf:RDF xmlns:rdf="http://www.w3.org/1999/02/22-rdf-syntax-ns#">
      <rdf:Description rdf:about=""/>
   </rdf:RDF>
</x:xmpmeta>
                                                                                                    
                                                                                                    
                                                                                                    
                                                                                                    
                                                                                                    
                                                                                                    
                                                                                                    
                                                                                                    
                                                                                                    
                                                                                                    
                                                                                                    
                                                                                                    
                                                                                                    
                                                                                                    
                                                                                                    
                                                                                                    
                                                                                                    
                                                                                                    
                                                                                                    
                                                                                                    
                           
<?xpacket end="w"?></metadata>
<defs>
    <style>
      .cls-1 {
        fill: #f75c1a;
        fill-rule: evenodd;
      }
    </style>
  </defs>
  <path id="advantages-1" class="cls-1" d="M226.763,405.229c4.026-3.618,8.2-4.1,13.511-1.8-0.142-4.972-.366-10.073-0.4-15.175a6.285,6.285,0,0,0-3.267-5.76,3.664,3.664,0,0,0-3.084-.553c-1.164.282-2.518-.252-3.794-0.373a2.9,2.9,0,0,0-1.578.1c-2.607,1.5-4.02,1.537-6.132-.087-1.984-1.524-2.222-3.7-1.6-5.829a16.8,16.8,0,0,1,3.988-6.892,2.338,2.338,0,0,1,2.607-.713c3.722,1.289,7.479,2.494,11.131,3.96,2.988,1.2,4.962,3.778,7.238,5.935,6.16,5.838,9.607,13.369,13.113,20.856,1.394,2.976,2.629,6.028,3.892,9.063a5.83,5.83,0,0,1-1.027,6.683,51.229,51.229,0,0,1-23.461,15.1c-2.356.734-4.993,0.666-7.509,0.778-5.051.225-10.108,0.323-15.162,0.468-6.8.195-10.387-3.047-12.264-8.928-2.123-6.652-.772-12.651,4.332-17.444,5.284-4.963,12.869-4.881,18.553-.163C226.142,404.7,226.428,404.945,226.763,405.229Zm-1.365.978c-3.665-3.121-7.643-4.524-12.305-3.052-6.717,2.121-10.773,9.592-8.977,16.741a20.494,20.494,0,0,0,2.267,5.466c1.918,3.2,5.11,4.062,8.628,3.977,4.595-.11,9.19-0.223,13.782-0.418,2.749-.117,5.632.08,8.211-0.683a48.722,48.722,0,0,0,23.074-14.62,4.281,4.281,0,0,0,.8-4.961c-1.474-3.442-2.854-6.929-4.466-10.306-3.095-6.487-6.085-13.062-11.323-18.228-2.339-2.307-4.355-5.091-7.443-6.411-3.577-1.53-7.322-2.675-11.016-3.921a1.4,1.4,0,0,0-1.268.381,42.108,42.108,0,0,0-3.295,5.876,3.463,3.463,0,0,0,.941,4.2c1.4,1.126,2.4,1.251,3.962.126a3.2,3.2,0,0,1,3.523-.323,4.358,4.358,0,0,0,3.452.119,2.8,2.8,0,0,1,1.978.12A17.265,17.265,0,0,1,239,382.26a6.45,6.45,0,0,1,2.473,5.316c0.03,3.059.226,6.119,0.191,9.177a21.222,21.222,0,0,0,1.376,8.64,0.817,0.817,0,0,1,.122.435,1.707,1.707,0,0,1-.372.867,0.948,0.948,0,0,1-.829-0.007,5.424,5.424,0,0,1-1.117-.8,9.707,9.707,0,0,0-13.519,1.144c-1.061,1.332-2.31,2.514-3.51,3.805l-1.227-1.048C223.525,408.59,224.421,407.449,225.4,406.207Z" transform="translate(-202 -368)"/>
</svg>
