<svg xmlns="http://www.w3.org/2000/svg" width="95" height="59" viewBox="0 0 95 59">
  <metadata><?xpacket begin="﻿" id="W5M0MpCehiHzreSzNTczkc9d"?>
<x:xmpmeta xmlns:x="adobe:ns:meta/" x:xmptk="Adobe XMP Core 5.6-c138 79.159824, 2016/09/14-01:09:01        ">
   <rdf:RDF xmlns:rdf="http://www.w3.org/1999/02/22-rdf-syntax-ns#">
      <rdf:Description rdf:about=""/>
   </rdf:RDF>
</x:xmpmeta>
                                                                                                    
                                                                                                    
                                                                                                    
                                                                                                    
                                                                                                    
                                                                                                    
                                                                                                    
                                                                                                    
                                                                                                    
                                                                                                    
                                                                                                    
                                                                                                    
                                                                                                    
                                                                                                    
                                                                                                    
                                                                                                    
                                                                                                    
                                                                                                    
                                                                                                    
                                                                                                    
                           
<?xpacket end="w"?></metadata>
<defs>
    <style>
      .cls-1 {
        fill: #f75c1a;
        fill-rule: evenodd;
      }
    </style>
  </defs>
  <path id="advantages-3" class="cls-1" d="M880.8,388.221c0.763,2.929-.794,4.3-3.219,5.634q-30.36,16.719-60.586,33.68a2.789,2.789,0,0,1-3.061.01q-13.111-7.041-26.284-13.969a2.632,2.632,0,0,1-1.649-2.756,40.157,40.157,0,0,0,0-4.375,2.115,2.115,0,0,1,1.287-2.188q16.981-9.4,33.926-18.87c9.479-5.277,18.968-10.534,28.426-15.847a3.112,3.112,0,0,1,3.39-.066c8.454,4.613,16.908,9.23,25.445,13.687,1.832,0.956,2.675,2.038,2.332,4.041A6.075,6.075,0,0,0,880.8,388.221Zm-13.876-8.973a25.811,25.811,0,0,1-11.749,9.049,1.9,1.9,0,0,0-.864,1.121,11.126,11.126,0,0,1-6.91,7.209,4.61,4.61,0,0,1-4.219-.294c-1.039-.627-1.449-1.6-0.74-2.59a45.967,45.967,0,0,1,3.137-3.586q0.171,0.155.34,0.311c-0.705.9-1.463,1.765-2.1,2.709-1.138,1.678-.647,2.628,1.379,2.742a4.153,4.153,0,0,0,1.449-.1,10,10,0,0,0,6.5-6.036c0.653-1.61.118-2.547-1.618-2.848a14.334,14.334,0,0,0-11.629,3.006,2.894,2.894,0,0,0-1.021,3.38c0.6,2.036.381,2.42-1.577,3.421-3.724,1.9-7.426,3.855-11.193,5.669-6.257,3.015-12.436,6.211-19.162,8.163a23.336,23.336,0,0,0-4.215,2.3c2.507,1.328,4.575,2.489,6.711,3.51a2.742,2.742,0,0,0,1.976.083,74.762,74.762,0,0,0,6.934-3.059,42.262,42.262,0,0,0,6.965-4.195,5.865,5.865,0,0,1,4.93-1.5c1.239,0.213,2.437.651,3.662,0.957a2.1,2.1,0,0,0,1.209.113c1.087-.5,2.115-1.135,3.284-1.783l-2.432-2.059a9.048,9.048,0,0,1,2.69.532,3.494,3.494,0,0,0,3.286-.406c2.072-1.269,4.235-2.389,6.36-3.573l9.356-5.217c-0.272-.383-0.47-0.65-0.655-0.924-1.229-1.821-1.266-2.632.439-3.979a35.476,35.476,0,0,1,5.61-3.61c2.063-1.072,4.32-1.769,6.433-2.754,1.24-.578,2.365-1.4,3.834-2.286Zm-7.765-4.194c-2.217,1.124-4.084,2.131-6,3.024-1.629.758-3.328,1.366-4.982,2.074-4.034,1.726-8.1,3.468-11.322,6.516a12.33,12.33,0,0,0-3.053,4.49,6.034,6.034,0,0,1-2.708,3.6c-2.706,1.422-5.429,2.845-8.255,4-5.76,2.35-11.589,4.534-17.4,6.761a13.3,13.3,0,0,0-6.279,5.441c0.8,0.431,1.558.883,2.355,1.234a1.145,1.145,0,0,0,.994-0.03c2.165-2.049,5.036-2.673,7.626-3.87,8.961-4.141,17.888-8.354,26.844-12.5a1.51,1.51,0,0,0,.99-2.166,3.71,3.71,0,0,1,1.284-4.431,15.848,15.848,0,0,1,10.282-3.5,5.74,5.74,0,0,1,4.759,1.776,28.108,28.108,0,0,0,10.764-9.207Zm-1.151-.606c-2.07-1.118-3.718-1.93-5.282-2.882a2.273,2.273,0,0,0-2.65-.01c-4.724,2.71-9.469,5.386-14.272,7.952a12.126,12.126,0,0,0-4.6,4.209c-4.995,7.551-12.218,12.434-20.416,15.906-3.837,1.625-7.919,2.664-11.814,4.166-2.27.876-4.389,2.143-6.905,3.4,1.8,0.959,3.215,1.6,4.5,2.441,1.208,0.793,2.074.6,2.781-.548,1.437-2.329,3.695-3.527,6.127-4.47,4.033-1.563,8.122-2.991,12.115-4.649,4.167-1.729,8.271-3.616,12.357-5.531a5.323,5.323,0,0,0,2.937-3.6,6.448,6.448,0,0,1,1.786-2.951,43.523,43.523,0,0,1,6.927-5.5c3.307-1.91,6.943-3.248,10.413-4.884C853.919,376.6,855.77,375.592,858.012,374.448Zm20.831,12.384c-0.635.322-1.063,0.522-1.474,0.75-10.764,5.973-21.5,11.989-32.308,17.891-2.373,1.3-4.55,2.567-4.991,5.515a1.112,1.112,0,0,1-.267.284c-0.274-.762-0.527-1.464-0.769-2.138a0.95,0.95,0,0,0-.349,0q-10.786,5.979-21.556,11.991a1.462,1.462,0,0,0-.647,1c-0.086,1.039-.03,2.09-0.03,3.319,0.638-.311,1.073-0.5,1.483-0.726q11.036-6.139,22.064-12.287,18.813-10.475,37.615-20.967a2.348,2.348,0,0,0,1.174-1.263A20.57,20.57,0,0,0,878.843,386.832Zm-48.307-4.361-41.554,23.137c1.2,0.377,1.8,1.5,3.023.682a46.013,46.013,0,0,1,13.331-5.769,49.366,49.366,0,0,0,15.725-7.8A30.85,30.85,0,0,0,830.536,382.471Zm-42.512,24.835a20.939,20.939,0,0,1-.018,2.524,2.147,2.147,0,0,0,1.433,2.455c7.979,4.163,15.913,8.412,23.864,12.629,0.322,0.171.67,0.3,1.193,0.524a12.266,12.266,0,0,1,.016-1.921c0.291-1.659-.482-2.468-1.932-3.209-5.673-2.9-11.271-5.949-16.9-8.94C793.205,410.05,790.724,408.738,788.024,407.306Zm86.43-24c-2.4,1.09-4.416,2.093-6.5,2.938-3.392,1.373-6.7,2.864-9.427,5.381-1.818,1.68-1.777,2.307.234,4.034l18.983-10.572Zm-41.13,26.5c-0.008-.179-0.016-0.358-0.025-0.538-1.946-.166-3.89-0.389-5.839-0.462a2.375,2.375,0,0,0-1.567.669c-2.786,2.774-6.347,4.259-9.776,5.963-1.419.705-2.876,1.333-4.552,2.105,1.032,0.553,1.867.922,2.615,1.42a2.307,2.307,0,0,0,2.786.007c2.878-1.711,5.837-3.289,8.762-4.921Q829.527,411.935,833.324,409.811Zm6.713-.87c0.717-2.4.717-2.4-1.554-2.869Z" transform="translate(-786 -369)"/>
</svg>
