<svg xmlns="http://www.w3.org/2000/svg" width="97" height="57" viewBox="0 0 97 57">
  <metadata><?xpacket begin="﻿" id="W5M0MpCehiHzreSzNTczkc9d"?>
<x:xmpmeta xmlns:x="adobe:ns:meta/" x:xmptk="Adobe XMP Core 5.6-c138 79.159824, 2016/09/14-01:09:01        ">
   <rdf:RDF xmlns:rdf="http://www.w3.org/1999/02/22-rdf-syntax-ns#">
      <rdf:Description rdf:about=""/>
   </rdf:RDF>
</x:xmpmeta>
                                                                                                    
                                                                                                    
                                                                                                    
                                                                                                    
                                                                                                    
                                                                                                    
                                                                                                    
                                                                                                    
                                                                                                    
                                                                                                    
                                                                                                    
                                                                                                    
                                                                                                    
                                                                                                    
                                                                                                    
                                                                                                    
                                                                                                    
                                                                                                    
                                                                                                    
                                                                                                    
                           
<?xpacket end="w"?></metadata>
<defs>
    <style>
      .cls-1 {
        fill: #f75c1a;
        fill-rule: evenodd;
      }
    </style>
  </defs>
  <path id="advantages-8" class="cls-1" d="M1181.97,663h-96.94c0-2.168.06-4.337-.02-6.5a13.381,13.381,0,0,1,1.03-5.646q8.625-21.769,17.13-43.588a1.533,1.533,0,0,1,1.65-1.263q28.86,0.053,57.72.028c0.25,0,.49.029,0.83,0.05q3.285,8.379,6.59,16.774c3.75,9.582,7.53,19.155,11.22,28.76a13.11,13.11,0,0,1,.76,4.033C1182.06,658.066,1181.97,660.5,1181.97,663Zm-43.79-54.762c-1.2,2.62-2.24,4.975-3.38,7.28a1.679,1.679,0,0,1-1.26.845,1.611,1.611,0,0,1-.96-1.105c-0.46-1.98-.76-4-1.22-5.979a1.533,1.533,0,0,0-.98-1.029,1.462,1.462,0,0,0-1.07.932,30.242,30.242,0,0,0-.55,4.138c-0.26,3.83.25,7.38,3.79,9.761a7.365,7.365,0,0,1,1.17,1.153c3.62,3.957,5.85,8.428,4.85,13.962a30.883,30.883,0,0,1-1.38,4.557,31.952,31.952,0,0,0-1.84,9.464h3.52c0.87-4.252,1.35-8.431,2.6-12.366a29.169,29.169,0,0,0-.34-19.02,46.558,46.558,0,0,1-1.82-7.661,31.109,31.109,0,0,1-.05-4.932h-1.08Zm-34.76,43.846c3.66,0.607,3.88.532,5.93-1.778,0.06-.075.13-0.145,0.19-0.223,3.91-4.945,5.67-10.313,3.28-16.509a6.459,6.459,0,0,1-.3-1.152,35.495,35.495,0,0,1,.71-13.615c0.76-3.475,1.41-6.976,2.14-10.633-1.41,0-2.56-.066-3.69.041a1.323,1.323,0,0,0-.89.859c-1.26,7.334-4.84,13.758-8.02,20.321a34.907,34.907,0,0,1-3.92,5.773,13.24,13.24,0,0,0-3.01,9.141c0.17,2.6.52,5.191,0.8,7.888,2.19,0.449,2.37.389,2.49-2.078a31.617,31.617,0,0,0-.25-5.051,11.254,11.254,0,0,1,3.17-9.861,19.5,19.5,0,0,0,4.56-7.237c0.66-1.716,1.36-3.421,2.11-5.1a2.858,2.858,0,0,1,.99-0.759,3.993,3.993,0,0,1,.68,1.033,3.509,3.509,0,0,1,.06,1.335,37.331,37.331,0,0,0,.55,10.637c0.9,4.294-.98,8.32-2.64,12.2-0.48,1.134-1.72,1.968-2.66,2.882C1105.06,650.821,1104.32,651.344,1103.42,652.082Zm24.35-43.892c-0.63-.209-1.13.03-1.25,1.041-0.2,1.579-.54,3.141-0.69,4.722-0.46,4.793-.76,9.6,2.23,13.812,3.38,4.751,3.95,9.984,2.89,15.527-0.57,2.969-1.2,5.926-1.82,8.955h4.95a3.856,3.856,0,0,0,.2-0.766,38.819,38.819,0,0,1,2.64-11.127,12.465,12.465,0,0,0-.95-11.077,28.22,28.22,0,0,0-4.95-6.094,9.164,9.164,0,0,1-3.23-6.623C1127.68,613.843,1127.77,611.118,1127.77,608.19Zm-17.66-.021c-1.53,0-2.57.068-3.6-.019a1.556,1.556,0,0,0-1.84,1.222q-7.95,20.909-16,41.785c-0.13.339-.19,0.707-0.31,1.157,2,0,3.85.046,5.69-.037a1.426,1.426,0,0,0,1.08-.787,19.911,19.911,0,0,0-.03-5.176c-0.99-4.609.28-8.5,3.08-12.117a37.326,37.326,0,0,0,3.82-5.674c1.94-3.8,3.77-7.685,5.38-11.639C1108.48,614.2,1109.14,611.328,1110.11,608.169Zm63.02,44.06a52.26,52.26,0,0,0-2.42-6.556,31.061,31.061,0,0,1-3.49-18.9,14.15,14.15,0,0,0-1.11-7.84c-1.37-3.031-2.53-6.16-3.62-9.3-0.52-1.488-1.32-1.75-2.71-1.287a5.95,5.95,0,0,0,.17.773,48.051,48.051,0,0,1,2.37,16.758c-0.41,9.341,1.93,17.992,5.97,26.351h4.84Zm6.7,2.349h-30.08v6.306h17.59c3.74,0,7.48-.024,11.22.016,0.95,0.01,1.33-.272,1.28-1.272C1179.77,657.991,1179.83,656.349,1179.83,654.578Zm-63.4-2.341c0.39-2.355.76-4.61,1.12-6.866,0.62-3.824,1.35-7.614.37-11.524a26.055,26.055,0,0,1,1.11-16.386c1.12-2.846,1.37-6.04,2.05-9.218h-4.53a1.752,1.752,0,0,0-.21.406c-0.95,4.879-2.05,9.736-2.79,14.647-0.6,4.038-.81,8.135,1.05,12.021a5.354,5.354,0,0,1,.34,2.047c0.11,4.941-1.1,9.454-4.43,13.256-0.41.467-.79,0.956-1.33,1.617h7.25Zm-29.17,8.5h28.92V654.55h-28.92v6.191Zm60.17-6.17H1118.5v6.2h28.93v-6.2Zm-26.12-2.257c2.21,0,3.85-.045,5.48.019a1.155,1.155,0,0,0,1.37-1.149c0.42-2.1.95-4.17,1.41-6.258,1.37-6.166,1.07-12.011-2.83-17.38a11.835,11.835,0,0,1-2.2-7.63c0.17-3.273.51-6.537,0.77-9.805,0.05-.628.08-1.258,0.12-1.887l-0.51-.071a9.643,9.643,0,0,0-.37,1.265c-0.6,4.49-1.08,9-1.79,13.469-0.5,3.193-.64,6.1,1.38,9.026a9.017,9.017,0,0,1,.53,9.139,30.135,30.135,0,0,0-1.49,3.739C1122.51,647.153,1121.99,649.557,1121.31,652.314Zm39.99-.067a2.484,2.484,0,0,0-.01-0.575,9.255,9.255,0,0,0-.61-1.676c-2.57-4.365-5.08-8.764-7.78-13.048-2.42-3.844-4.44-7.823-4.68-12.424-0.19-3.767-.12-7.55-0.15-11.325-0.02-1.653,0-3.306,0-4.923h-3.45a10.779,10.779,0,0,0,0,1.14q1.5,11.769,3.02,23.536c0.23,1.718.06,3.726,0.91,5.081a42.007,42.007,0,0,1,6,14.214h6.75Zm-8.09-43.981a24.246,24.246,0,0,1,.91,3.514c0.55,4.693,1.06,9.392,1.43,14.1a28.415,28.415,0,0,1-.26,5.2,1.424,1.424,0,0,1-.87.986,1.5,1.5,0,0,1-1.02-.662,4.8,4.8,0,0,1-.62-1.345,32.986,32.986,0,0,1-2.14-11.686c0.06-3.385.47-6.764,0.73-10.13h-2.35a75.09,75.09,0,0,1-.05,8.089c-1.22,11.141,4,19.8,10.59,28-0.07-.281-0.13-0.561-0.2-0.841-0.74-3.043-1.54-6.073-2.2-9.133-0.86-3.986.12-7.934,0.44-11.888a25.583,25.583,0,0,0-1.86-12.849C1155.21,608.434,1154.56,607.852,1153.21,608.266Zm13.63,43.859c-0.57-1.556-1.04-3.115-1.71-4.588a46.946,46.946,0,0,1-3.84-20.792,55.279,55.279,0,0,0-2.12-16.813c-0.55-1.924-.73-1.986-2.69-1.566,2.66,9.4,2.6,9.392,1.84,18.137a27.494,27.494,0,0,0,.01,7.846c1.1,5.188,2.69,10.275,4.15,15.382,0.8,2.767.87,2.748,3.73,2.567A4.475,4.475,0,0,0,1166.84,652.125Zm-24.68-43.793c-1.37-.45-1.74.027-1.82,1.291a27.291,27.291,0,0,0,1.9,11.376,26.671,26.671,0,0,1,1.34,14.81c-0.66,3.155-1.75,6.22-2.42,9.374-0.48,2.288-.58,4.656-0.86,7.025h7.12C1145.66,637.49,1143.91,622.9,1142.16,608.332Zm-32.87,16.548-0.31-.032c-0.37.962-.76,1.921-1.12,2.888a20.024,20.024,0,0,1-5.1,8.285,8.943,8.943,0,0,0-2.85,6.846c0.05,3.107.26,6.213,0.41,9.373a2.084,2.084,0,0,0,2.68-1.175,4.417,4.417,0,0,1,1.89-1.626,5.127,5.127,0,0,0,2.8-3.14c0.86-2.7,1.69-5.41,2.35-8.16a6.268,6.268,0,0,0-.09-3.246,20.316,20.316,0,0,1-.67-8.693A9.685,9.685,0,0,0,1109.29,624.88Zm69.44,27.244c-3.34-8.738-6.68-17.476-10.07-26.342a1.878,1.878,0,0,0-.34.519c-0.27,4.416-.7,8.857.96,13.118,1.22,3.142,2.58,6.234,3.84,9.36,0.47,1.152.54,2.832,1.38,3.371,0.91,0.591,2.5.144,3.79,0.142A1.884,1.884,0,0,0,1178.73,652.124Zm-58.13.125c-0.01-4.008,1.41-7.5,2.83-11a16.371,16.371,0,0,0,.96-3.122c0.53-2.984-.9-5.376-2.56-7.7-1.05,7.243-2.1,14.485-3.16,21.826h1.93Zm32.01-42.36c-1.7,6.3-.59,18.16,1.84,20.379A89.155,89.155,0,0,0,1152.61,609.889Zm-33.38,23.654q1.62-12.586,3.25-25.173l-0.44-.067c-0.07.408-.13,0.821-0.22,1.225a100.893,100.893,0,0,1-2.36,9.965A23.39,23.39,0,0,0,1119.23,633.543Zm34.17,18.694a27.337,27.337,0,0,0-4.7-10.915c0.36,3.617.71,7.234,1.08,10.915h3.62Zm-21.13-43.967c0.38,2.414.74,4.7,1.1,6.979l0.68,0.063c0.93-2.288,1.86-4.576,2.86-7.042h-4.64Zm-24.8,32.4a7.5,7.5,0,0,1-2.45,5.8c-0.82.7-1.94,1.318-2.82,0.507a3.064,3.064,0,0,1-.6-2.506,23.744,23.744,0,0,1,1.7-4.893c0.49-1.068,1.32-2.2,2.75-1.809C1107.5,638.165,1107.41,639.545,1107.47,640.669Zm-4.94,5.251c0.12,0.129.23,0.259,0.35,0.389a6.6,6.6,0,0,0,1.71-.922,6.469,6.469,0,0,0,1.71-5.6,1.209,1.209,0,0,0-.57-0.9,1.279,1.279,0,0,0-.98.48A11.105,11.105,0,0,0,1102.53,645.92Z" transform="translate(-1085 -606)"/>
</svg>
