<svg xmlns="http://www.w3.org/2000/svg" width="19" height="22" viewBox="0 0 19 22">
  <metadata><?xpacket begin="﻿" id="W5M0MpCehiHzreSzNTczkc9d"?>
<x:xmpmeta xmlns:x="adobe:ns:meta/" x:xmptk="Adobe XMP Core 5.6-c138 79.159824, 2016/09/14-01:09:01        ">
   <rdf:RDF xmlns:rdf="http://www.w3.org/1999/02/22-rdf-syntax-ns#">
      <rdf:Description rdf:about=""/>
   </rdf:RDF>
</x:xmpmeta>
                                                                                                    
                                                                                                    
                                                                                                    
                                                                                                    
                                                                                                    
                                                                                                    
                                                                                                    
                                                                                                    
                                                                                                    
                                                                                                    
                                                                                                    
                                                                                                    
                                                                                                    
                                                                                                    
                                                                                                    
                                                                                                    
                                                                                                    
                                                                                                    
                                                                                                    
                                                                                                    
                           
<?xpacket end="w"?></metadata>
<defs>
    <style>
      .cls-1 {
        fill: #fff;
        fill-rule: evenodd;
      }
    </style>
  </defs>
  <path id="category-6" class="cls-1" d="M891,36h1V17.919h-1V36Zm4,0h1V17.919h-1V36Zm-4-18.078h1l2.225-3.392-0.855-.521Zm5,0h-1l-2.225-3.392,0.855-.521Zm-5,17.074v1h5v-1h-5Zm4-12.052v1h4v-1h-4Zm7,0v1h4v-1h-4Zm-7,10.043v1h4v-1h-4Zm7,0v1h4v-1h-4ZM898,36h1V17.919h-1V36Zm4,0h1V17.919h-1V36Zm-4-18.078h1l2.225-3.392-0.855-.521Zm5,0h-1l-2.225-3.392,0.855-.521Zm-5,17.074v1h5v-1h-5Zm7,1h1V17.919h-1V36Zm4,0h1V17.919h-1V36Zm-4-18.078h1l2.225-3.392-0.855-.521Zm5,0h-1l-2.225-3.392,0.855-.521Zm-5,17.074v1h5v-1h-5Z" transform="translate(-891 -14)"/>
</svg>
