<svg xmlns="http://www.w3.org/2000/svg" width="8.406" height="21.25" viewBox="0 0 8.406 21.25">
  <metadata><?xpacket begin="﻿" id="W5M0MpCehiHzreSzNTczkc9d"?>
<x:xmpmeta xmlns:x="adobe:ns:meta/" x:xmptk="Adobe XMP Core 5.6-c138 79.159824, 2016/09/14-01:09:01        ">
   <rdf:RDF xmlns:rdf="http://www.w3.org/1999/02/22-rdf-syntax-ns#">
      <rdf:Description rdf:about=""/>
   </rdf:RDF>
</x:xmpmeta>
                                                                                                    
                                                                                                    
                                                                                                    
                                                                                                    
                                                                                                    
                                                                                                    
                                                                                                    
                                                                                                    
                                                                                                    
                                                                                                    
                                                                                                    
                                                                                                    
                                                                                                    
                                                                                                    
                                                                                                    
                                                                                                    
                                                                                                    
                                                                                                    
                                                                                                    
                                                                                                    
                           
<?xpacket end="w"?></metadata>
<defs>
    <style>
      .cls-1 {
        fill: #fff;
        fill-rule: evenodd;
      }
    </style>
  </defs>
  <path id="category-1" class="cls-1" d="M258.217,13.833h8.421V35.08h-8.421V13.833Zm7.652,20.519V14.617l-1.24-.02c0,0.578,0,1.171.009,1.764,0,0.277-.061.519-0.377,0.521s-0.377-.245-0.372-0.52c0.01-.6.009-1.2,0.013-1.807l-1.395.009a1.567,1.567,0,0,1,.084.356c0.006,1.309,0,2.617,0,3.926a0.676,0.676,0,0,1-.026.328,0.54,0.54,0,0,1-.32.272,0.593,0.593,0,0,1-.375-0.25,0.67,0.67,0,0,1-.036-0.359q0-1.963,0-3.926c0-.119-0.007-0.238-0.009-0.324H258.99v19.69l0.923,0.1c0-.88,0-1.719-0.011-2.557,0-.274.01-0.537,0.365-0.564,0.269-.021.381,0.162,0.382,0.58,0,0.47.008,0.94,0,1.409-0.008.376-.039,0.752-0.058,1.1h5.281Zm-5.3-17.756a2.327,2.327,0,0,1,.085.422q0,3.3,0,6.61a0.381,0.381,0,1,1-.755.018c0-2.237,0-4.474.015-6.711a0.5,0.5,0,0,1,.228-0.355A0.94,0.94,0,0,1,260.568,16.6Zm1.442,14.073a0.377,0.377,0,0,1-.669-0.112,1.094,1.094,0,0,1-.027-0.3q0-2.06,0-4.12a0.491,0.491,0,0,1,.021-0.262,0.632,0.632,0,0,1,.339-0.291,0.811,0.811,0,0,1,.379.292,0.334,0.334,0,0,1,.019.2c0,1.418,0,2.836,0,4.253A1.754,1.754,0,0,1,262.01,30.668Zm2.819-8.975a2.063,2.063,0,0,1,.088.391c0.005,1.464,0,2.928.005,4.391a0.362,0.362,0,0,1-.357.433,0.366,0.366,0,0,1-.389-0.437c0-1.464-.006-2.928.009-4.391a0.569,0.569,0,0,1,.226-0.395A0.849,0.849,0,0,1,264.829,21.694Zm-1.5,10.987a1.943,1.943,0,0,1-.087-0.38c-0.007-.961,0-1.922,0-2.882a0.361,0.361,0,0,1,.364-0.428,0.371,0.371,0,0,1,.393.41c0.008,0.994.007,1.989-.016,2.983a0.51,0.51,0,0,1-.259.338A0.828,0.828,0,0,1,263.324,32.681Z" transform="translate(-258.219 -13.844)"/>
</svg>
