<svg xmlns="http://www.w3.org/2000/svg" width="18" height="18" viewBox="0 0 18 18">
  <metadata><?xpacket begin="﻿" id="W5M0MpCehiHzreSzNTczkc9d"?>
<x:xmpmeta xmlns:x="adobe:ns:meta/" x:xmptk="Adobe XMP Core 5.6-c138 79.159824, 2016/09/14-01:09:01        ">
   <rdf:RDF xmlns:rdf="http://www.w3.org/1999/02/22-rdf-syntax-ns#">
      <rdf:Description rdf:about=""/>
   </rdf:RDF>
</x:xmpmeta>
                                                                                                    
                                                                                                    
                                                                                                    
                                                                                                    
                                                                                                    
                                                                                                    
                                                                                                    
                                                                                                    
                                                                                                    
                                                                                                    
                                                                                                    
                                                                                                    
                                                                                                    
                                                                                                    
                                                                                                    
                                                                                                    
                                                                                                    
                                                                                                    
                                                                                                    
                                                                                                    
                           
<?xpacket end="w"?></metadata>
<defs>
    <style>
      .cls-1 {
        fill: #fff;
        fill-rule: evenodd;
      }
    </style>
  </defs>
  <path id="date" class="cls-1" d="M941,388a9,9,0,1,1-9,8.849A9.011,9.011,0,0,1,941,388Zm-0.035,17.182a8.179,8.179,0,1,0-8.145-8.391A8.219,8.219,0,0,0,940.969,405.181Zm-0.369-9.245v-0.3q0-2.4,0-4.8a1.676,1.676,0,0,1,.008-0.284,0.365,0.365,0,0,1,.371-0.326,0.37,0.37,0,0,1,.408.28,0.894,0.894,0,0,1,.021.254q0,3.053,0,6.105a0.131,0.131,0,0,1,0,.056,1.264,1.264,0,0,1-.266.453,0.4,0.4,0,0,1-.5-0.142q-1.577-1.556-3.159-3.106c-0.149-.146-0.3-0.288-0.444-0.44a0.41,0.41,0,1,1,.574-0.576q1.322,1.288,2.637,2.584a2.129,2.129,0,0,1,.23.327Z" transform="translate(-932 -388)"/>
</svg>
