<svg xmlns="http://www.w3.org/2000/svg" width="20" height="13" viewBox="0 0 20 13">
  <metadata><?xpacket begin="﻿" id="W5M0MpCehiHzreSzNTczkc9d"?>
<x:xmpmeta xmlns:x="adobe:ns:meta/" x:xmptk="Adobe XMP Core 5.6-c138 79.159824, 2016/09/14-01:09:01        ">
   <rdf:RDF xmlns:rdf="http://www.w3.org/1999/02/22-rdf-syntax-ns#">
      <rdf:Description rdf:about=""/>
   </rdf:RDF>
</x:xmpmeta>
                                                                                                    
                                                                                                    
                                                                                                    
                                                                                                    
                                                                                                    
                                                                                                    
                                                                                                    
                                                                                                    
                                                                                                    
                                                                                                    
                                                                                                    
                                                                                                    
                                                                                                    
                                                                                                    
                                                                                                    
                                                                                                    
                                                                                                    
                                                                                                    
                                                                                                    
                                                                                                    
                           
<?xpacket end="w"?></metadata>
<defs>
    <style>
      .cls-1 {
        fill: #fff;
        fill-rule: evenodd;
      }
    </style>
  </defs>
  <path id="email" class="cls-1" d="M940.95,521q-4.605,0-9.211,0c-0.678,0-.739-0.06-0.739-0.712V508.7c0-.647.06-0.7,0.746-0.7h18.515c0.676,0,.738.061,0.738,0.712q0,5.792,0,11.582c0,0.648-.059.7-0.745,0.705h-9.3Zm-9.152-8.741v0.508c0,2.323.01,4.646-.01,6.968,0,0.419.135,0.514,0.552,0.513q8.658-.019,17.314-0.009h0.5v-7.951c-0.213.066-.375,0.111-0.532,0.166-2.734.962-5.465,1.932-8.206,2.877a1.384,1.384,0,0,1-.828,0c-2.046-.7-4.082-1.428-6.121-2.146C933.607,512.884,932.741,512.586,931.8,512.258Zm9.215-3.5c-2.916,0-5.832,0-8.747-.007-0.363,0-.49.1-0.475,0.451,0.025,0.62.02,1.242,0,1.863a0.437,0.437,0,0,0,.354.485c2.853,0.991,5.7,1.993,8.557,2.979a0.946,0.946,0,0,0,.574.009q4.3-1.486,8.593-3.012a0.6,0.6,0,0,0,.319-0.439c0.037-.6-0.01-1.213.024-1.818,0.023-.411-0.119-0.523-0.545-0.52C946.783,508.767,943.9,508.759,941.013,508.759Z" transform="translate(-931 -508)"/>
</svg>
