<svg xmlns="http://www.w3.org/2000/svg" width="17" height="24" viewBox="0 0 17 24">
  <metadata><?xpacket begin="﻿" id="W5M0MpCehiHzreSzNTczkc9d"?>
<x:xmpmeta xmlns:x="adobe:ns:meta/" x:xmptk="Adobe XMP Core 5.6-c138 79.159824, 2016/09/14-01:09:01        ">
   <rdf:RDF xmlns:rdf="http://www.w3.org/1999/02/22-rdf-syntax-ns#">
      <rdf:Description rdf:about=""/>
   </rdf:RDF>
</x:xmpmeta>
                                                                                                    
                                                                                                    
                                                                                                    
                                                                                                    
                                                                                                    
                                                                                                    
                                                                                                    
                                                                                                    
                                                                                                    
                                                                                                    
                                                                                                    
                                                                                                    
                                                                                                    
                                                                                                    
                                                                                                    
                                                                                                    
                                                                                                    
                                                                                                    
                                                                                                    
                                                                                                    
                           
<?xpacket end="w"?></metadata>
<defs>
    <style>
      .cls-1 {
        fill: #fff;
        fill-rule: evenodd;
      }
    </style>
  </defs>
  <path id="label" class="cls-1" d="M941.481,329c-0.938-1.035-1.858-2-2.723-3.014a30.642,30.642,0,0,1-4.324-6.34,11.545,11.545,0,0,1-1.427-5.509,9.478,9.478,0,0,1,3.5-7.393,8,8,0,0,1,9.916-.046,9.514,9.514,0,0,1,3.538,6.8,11.242,11.242,0,0,1-1.536,6.334A36.667,36.667,0,0,1,942.431,328C942.137,328.31,941.838,328.622,941.481,329Zm0-.817c0.942-1.09,1.844-2.087,2.693-3.127a28.629,28.629,0,0,0,4.329-6.844,9.149,9.149,0,0,0-.967-9.481,7.09,7.09,0,0,0-6.1-3.1,7.379,7.379,0,0,0-6.666,4.147,9.353,9.353,0,0,0-.284,8.492,27.969,27.969,0,0,0,4.308,6.817C939.641,326.117,940.543,327.1,941.486,328.182Zm0.014-18.4a4,4,0,1,1-4.02,3.9A4.011,4.011,0,0,1,941.5,309.779Zm-3.414,3.974a3.417,3.417,0,1,0,3.425-3.365A3.4,3.4,0,0,0,938.086,313.753Z" transform="translate(-933 -305)"/>
</svg>
