<svg xmlns="http://www.w3.org/2000/svg" width="13" height="13" viewBox="0 0 13 13">
  <metadata><?xpacket begin="﻿" id="W5M0MpCehiHzreSzNTczkc9d"?>
<x:xmpmeta xmlns:x="adobe:ns:meta/" x:xmptk="Adobe XMP Core 5.6-c138 79.159824, 2016/09/14-01:09:01        ">
   <rdf:RDF xmlns:rdf="http://www.w3.org/1999/02/22-rdf-syntax-ns#">
      <rdf:Description rdf:about=""/>
   </rdf:RDF>
</x:xmpmeta>
                                                                                                    
                                                                                                    
                                                                                                    
                                                                                                    
                                                                                                    
                                                                                                    
                                                                                                    
                                                                                                    
                                                                                                    
                                                                                                    
                                                                                                    
                                                                                                    
                                                                                                    
                                                                                                    
                                                                                                    
                                                                                                    
                                                                                                    
                                                                                                    
                                                                                                    
                                                                                                    
                           
<?xpacket end="w"?></metadata>
<defs>
    <style>
      .cls-1 {
        fill: #f75c1a;
        fill-rule: evenodd;
      }
    </style>
  </defs>
  <path id="phone" class="cls-1" d="M1327.63,227.149c0.55-.56,1.1-1.117,1.64-1.679a0.261,0.261,0,0,1,.29-0.085,12.681,12.681,0,0,0,2.87.528,0.648,0.648,0,0,1,.57.656q0,1.41-.03,2.822a0.654,0.654,0,0,1-.69.608c-0.67-.024-1.35-0.049-2.02-0.12a12.557,12.557,0,0,1-3.28-.795,10.2,10.2,0,0,1-6.07-6.332,15.343,15.343,0,0,1-.85-4.086L1320,217.7a0.6,0.6,0,0,1,.56-0.683c0.33-.02.66-0.01,0.99-0.01,0.66,0,1.33-.011,1.99.007a1.2,1.2,0,0,1,.53.161,0.533,0.533,0,0,1,.27.534,8,8,0,0,0,.46,2.525,0.788,0.788,0,0,1-.24.982c-0.45.394-.85,0.852-1.28,1.279a0.178,0.178,0,0,0-.04.253A10.838,10.838,0,0,0,1327.63,227.149Z" transform="translate(-1320 -217)"/>
</svg>
