<svg xmlns="http://www.w3.org/2000/svg" width="12" height="20" viewBox="0 0 12 20">
  <metadata><?xpacket begin="﻿" id="W5M0MpCehiHzreSzNTczkc9d"?>
<x:xmpmeta xmlns:x="adobe:ns:meta/" x:xmptk="Adobe XMP Core 5.6-c138 79.159824, 2016/09/14-01:09:01        ">
   <rdf:RDF xmlns:rdf="http://www.w3.org/1999/02/22-rdf-syntax-ns#">
      <rdf:Description rdf:about=""/>
   </rdf:RDF>
</x:xmpmeta>
                                                                                                    
                                                                                                    
                                                                                                    
                                                                                                    
                                                                                                    
                                                                                                    
                                                                                                    
                                                                                                    
                                                                                                    
                                                                                                    
                                                                                                    
                                                                                                    
                                                                                                    
                                                                                                    
                                                                                                    
                                                                                                    
                                                                                                    
                                                                                                    
                                                                                                    
                                                                                                    
                           
<?xpacket end="w"?></metadata>
<defs>
    <style>
      .cls-1 {
        fill: #fff;
        fill-rule: evenodd;
      }
    </style>
  </defs>
  <path id="phone-mobile" class="cls-1" d="M947,468.031q0,3.639,0,7.279a2.476,2.476,0,0,1-2.591,2.68q-3.406.018-6.812,0a2.471,2.471,0,0,1-2.578-2.691c0-4.883.022-9.767-.015-14.651A2.556,2.556,0,0,1,937.57,458c1.6,0.022,3.206,0,4.808,0,0.761,0,1.523-.025,2.281.017a2.417,2.417,0,0,1,2.333,2.508c0.015,1.723,0,3.445,0,5.168Q947,466.866,947,468.031Zm-11.085-6.83v12.672H946.1V461.2H935.911Zm-0.017,13.62v0.364a1.617,1.617,0,0,0,1.836,1.893c2.2,0,4.4-.026,6.6.011a1.718,1.718,0,0,0,1.75-2.268H935.894Zm0.035-14.566h10.123a1.472,1.472,0,0,0-1.508-1.333c-2.353,0-4.7-.007-7.058.007a1.814,1.814,0,0,0-.767.187A1.391,1.391,0,0,0,935.929,460.255Zm5.743,15.682a0.684,0.684,0,0,1-.66.684,0.676,0.676,0,0,1-.674-0.669A0.667,0.667,0,1,1,941.672,475.937Z" transform="translate(-935 -458)"/>
</svg>
